Coordinates
version=1
nRows=26
nColumns=30
inDegrees=yes

Units are S.I. units (second, meters, Newtons, ...)
Angles are in degrees.

endheader
time	floatyaw	floatroll	floatpitch	floatx	floaty	floatz	pro_sup_l	deviation_l	flexion_l	cmc_flexion_l	cmc_abduction_l	mp_flexion_l	ip_flexion_l	2mcp_flexion_l	2mcp_abduction_l	2pm_flexion_l	2md_flexion_l	3mcp_flexion_l	3mcp_abduction_l	3pm_flexion_l	3md_flexion_l	4mcp_flexion_l	4mcp_abduction_l	4pm_flexion_l	4md_flexion_l	5mcp_flexion_l	5mcp_abduction_l	5pm_flexion_l	5md_flexion_l
-0.495000	-160.147433	-5.066637	-73.570646	0.077801	-0.178925	-0.020274	101.045667	1.384392	0.770574	13.069754	5.171033	-25.901504	-40.822764	29.447798	7.351700	42.186101	29.558464	21.930663	4.180707	44.473812	29.888588	10.486771	-4.598519	52.955913	35.987910	-1.431148	-7.742360	62.546531	42.922877
-0.485000	-160.147433	-5.066637	-73.570646	0.077129	-0.178298	-0.020876	100.874516	1.491276	0.786369	12.981211	5.146015	-25.924963	-40.796455	29.447310	7.345757	42.228793	29.591014	22.046750	4.167702	44.478889	29.900309	10.710402	-4.585408	52.854688	35.966397	-1.229035	-7.756517	62.436054	42.875048
-0.475000	-160.147433	-5.066637	-73.570646	0.076322	-0.177574	-0.021575	100.637127	1.609518	0.790147	12.886839	5.115310	-25.962445	-40.790419	29.484264	7.342357	42.256411	29.616689	22.220530	4.153615	44.475641	29.908485	11.025304	-4.571037	52.707102	35.952159	-0.938747	-7.774970	62.295265	42.833451
-0.465000	-160.147433	-5.066637	-73.570646	0.075364	-0.176754	-0.022381	100.328606	1.740329	0.775686	12.782767	5.084020	-26.017279	-40.813359	29.553794	7.344910	42.275348	29.635353	22.441630	4.141134	44.475709	29.915964	11.423224	-4.556412	52.523291	35.945490	-0.573822	-7.800181	62.146202	42.805952
-0.455000	-160.147433	-5.066637	-73.570646	0.074246	-0.175840	-0.023302	99.948648	1.885125	0.742462	12.664167	5.053142	-26.085959	-40.862179	29.641480	7.355523	42.300616	29.653038	22.691153	4.132779	44.493698	29.927971	11.881926	-4.542792	52.324532	35.945297	-0.162102	-7.834716	62.011156	42.796887
-0.445000	-160.147433	-5.066637	-73.570646	0.072967	-0.174842	-0.024337	99.501068	2.045382	0.696827	12.527802	5.018001	-26.158210	-40.921948	29.729090	7.374351	42.351850	29.680278	22.950539	4.130417	44.539095	29.948505	12.375153	-4.531098	52.134528	35.948480	0.265141	-7.881460	61.908021	42.807298
-0.435000	-160.147433	-5.066637	-73.570646	0.071530	-0.173763	-0.025480	98.992128	2.222781	0.652129	12.374410	4.971493	-26.221803	-40.973175	29.801823	7.399571	42.445484	29.727504	23.209761	4.134571	44.609707	29.977159	12.883179	-4.521271	51.968389	35.950517	0.684712	-7.942101	61.845099	42.835817
-0.425000	-160.147433	-5.066637	-73.570646	0.069939	-0.172605	-0.026724	98.427174	2.418688	0.626581	12.209185	4.909941	-26.270068	-41.002946	29.854233	7.427739	42.587231	29.800013	23.470976	4.143780	44.691425	30.008844	13.399236	-4.512125	51.825231	35.947769	1.089528	-8.014453	61.816845	42.879387
-0.415000	-160.147433	-5.066637	-73.570646	0.068187	-0.171358	-0.028069	97.806698	2.632526	0.638007	12.039657	4.836874	-26.307703	-41.013550	29.892368	7.454346	42.769569	29.895473	23.746015	4.154583	44.765629	30.037097	13.929700	-4.501956	51.688794	35.940466	1.490634	-8.091164	61.803593	42.933541
-0.405000	-160.147433	-5.066637	-73.570646	0.066258	-0.170008	-0.029524	97.123839	2.860116	0.697011	11.872199	4.761386	-26.351079	-41.023716	29.930447	7.474484	42.975873	30.005436	24.048727	4.162634	44.820419	30.058963	14.488432	-4.489452	51.536431	35.934258	1.911948	-8.162177	61.778182	42.993006
-0.395000	-160.147433	-5.066637	-73.570646	0.064137	-0.168547	-0.031103	96.364379	3.093815	0.802278	11.709541	4.692089	-26.421925	-41.061376	29.982900	7.483739	43.188461	30.119782	24.385794	4.164759	44.858808	30.078043	15.087805	-4.474159	51.352290	35.938742	2.378867	-8.220303	61.719113	43.053485
-0.385000	-160.147433	-5.066637	-73.570646	0.061812	-0.166977	-0.032821	95.508614	3.325218	0.941304	11.550563	4.631470	-26.536409	-41.150306	30.056158	7.479218	43.395609	30.231286	24.751268	4.160861	44.898415	30.103333	15.730895	-4.456062	51.137651	35.963334	2.905670	-8.266122	61.624498	43.114240
-0.375000	-160.147433	-5.066637	-73.570646	0.059276	-0.165309	-0.034689	94.533976	3.549163	1.096592	11.391118	4.575459	-26.694135	-41.295372	30.146148	7.460246	43.593779	30.337608	25.128958	4.154260	44.962192	30.144277	16.409591	-4.434560	50.911857	36.012624	3.488829	-8.308444	61.518066	43.179703
-0.365000	-160.147433	-5.066637	-73.570646	0.056522	-0.163562	-0.036711	93.418454	3.766620	1.253977	11.223792	4.518906	-26.872859	-41.473037	30.243696	7.428267	43.784804	30.439984	25.502154	4.149938	45.064990	30.204881	17.110307	-4.407692	50.702200	36.083655	4.110325	-8.359661	61.441455	43.258221
-0.355000	-160.147433	-5.066637	-73.570646	0.053539	-0.161745	-0.038887	92.145783	3.984734	1.408511	11.036838	4.462394	-27.033550	-41.633932	30.343455	7.386124	43.971077	30.540173	25.864935	4.151619	45.203396	30.280275	17.823620	-4.372619	50.528722	36.166430	4.748490	-8.428645	61.434740	43.357321
-0.345000	-160.147433	-5.066637	-73.570646	0.050319	-0.159860	-0.041207	90.712262	4.214175	1.564697	10.814785	4.414039	-27.135659	-41.719648	30.449169	7.337570	44.152176	30.637970	26.227785	4.159581	45.354769	30.357665	18.551036	-4.327441	50.394022	36.247581	5.389456	-8.515226	61.514335	43.477192
-0.335000	-160.147433	-5.066637	-73.570646	0.046862	-0.157896	-0.043655	89.132156	4.465270	1.731130	10.541954	4.383722	-27.156084	-41.687304	30.572150	7.287601	44.323831	30.730278	26.613706	4.170716	45.486814	30.421417	19.304239	-4.273176	50.284326	36.315837	6.033055	-8.609616	61.659725	43.606271
-0.325000	-160.147433	-5.066637	-73.570646	0.043180	-0.155833	-0.046205	87.436832	4.744174	1.913231	10.207273	4.373589	-27.101911	-41.529576	30.725961	7.243279	44.477899	30.811233	27.046894	4.180876	45.573560	30.460075	20.097847	-4.214262	50.179049	36.367066	6.691051	-8.697801	61.816839	43.723097
-0.315000	-160.147433	-5.066637	-73.570646	0.039300	-0.153656	-0.048835	85.664851	5.049368	2.109373	9.808125	4.371637	-27.009918	-41.280378	30.922161	7.213890	44.602718	30.873103	27.540398	4.187909	45.609715	30.471960	20.941189	-4.157026	50.060211	36.406505	7.379563	-8.770378	61.918046	43.805818
-0.305000	-160.147433	-5.066637	-73.570646	0.035250	-0.151358	-0.051522	83.846167	5.368603	2.313473	9.352732	4.352460	-26.932872	-41.004806	31.168802	7.209592	44.685546	30.908742	28.089792	4.193105	45.615114	30.466265	21.834769	-4.107314	49.915296	36.446913	8.109914	-8.829445	61.910086	43.845705
-0.295000	-160.147433	-5.066637	-73.570646	0.031050	-0.148953	-0.054260	81.988754	5.677618	2.522384	8.861249	4.283987	-26.919061	-40.778891	31.470041	7.238669	44.718736	30.916111	28.676450	4.199925	45.625434	30.458602	22.773133	-4.069079	49.734633	36.503506	8.882396	-8.888542	61.776561	43.857108
-0.285000	-160.147433	-5.066637	-73.570646	0.026704	-0.146464	-0.057050	80.075647	5.942701	2.742599	8.364592	4.136231	-26.993634	-40.666372	31.825313	7.304462	44.707793	30.903055	29.278288	4.211185	45.673433	30.463255	23.750810	-4.044602	49.510331	36.588552	9.685587	-8.965459	61.544744	43.876879
-0.275000	-160.147433	-5.066637	-73.570646	0.022202	-0.143931	-0.059900	78.074288	6.127844	2.991002	7.899509	3.889047	-27.148556	-40.698625	32.228658	7.403551	44.676145	30.888877	29.881479	4.227268	45.771999	30.486950	24.765498	-4.035226	49.243227	36.708932	10.500713	-9.073330	61.275604	43.951967
-0.265000	-160.147433	-5.066637	-73.570646	0.017535	-0.141396	-0.062814	75.952781	6.204352	3.288559	7.500033	3.538210	-27.344822	-40.863572	32.669245	7.526722	44.662493	30.900574	30.486423	4.246793	45.910048	30.528045	25.814914	-4.041076	48.956661	36.867628	11.307729	-9.216222	61.044445	44.121218
-0.255000	-160.147433	-5.066637	-73.570646	0.012713	-0.138904	-0.065784	73.694270	6.158462	3.650885	7.187778	3.099463	-27.527126	-41.108881	33.132363	7.663106	44.710912	30.965085	31.105326	4.268765	46.063437	30.580877	26.889638	-4.059826	48.705851	37.066476	12.089173	-9.390578	60.921877	44.401262
-0.245000	-160.147433	-5.066637	-73.570646	0.007768	-0.136502	-0.068788	71.302605	5.992857	4.081687	6.964573	2.608625	-27.646446	-41.360460	33.599572	7.805835	44.857933	31.101269	31.753977	4.293951	46.212266	30.641123	27.968640	-4.086261	48.568791	37.306197	12.830289	-9.588797	60.960622	44.783465
